<svg width="12" height="10" viewBox="0 0 12 10" fill="none" xmlns="http://www.w3.org/2000/svg">
    <g clip-path="url(#clip0)">
        <path d="M4.34573 5.34485H2.69055C2.57634 5.34485 2.48364 5.42209 2.48364 5.51727V9.6552C2.48364 9.75038 2.57634 9.82762 2.69055 9.82762H4.34573C4.45994 9.82762 4.55263 9.75038 4.55263 9.6552V5.51727C4.55263 5.42209 4.45994 5.34485 4.34573 5.34485Z"
              fill="#35170C"/>
        <path d="M6.82861 3.62061H5.17346C5.05925 3.62061 4.96655 3.69785 4.96655 3.79303V9.65509C4.96655 9.75027 5.05925 9.82752 5.17346 9.82752H6.82864C6.94285 9.82752 7.03554 9.75027 7.03554 9.65509V3.79303C7.03552 3.69785 6.94282 3.62061 6.82861 3.62061Z"
              fill="#35170C"/>
        <path d="M9.31131 1.89661H7.65613C7.54191 1.89661 7.44922 1.97385 7.44922 2.06903V9.65524C7.44922 9.75042 7.54191 9.82766 7.65613 9.82766H9.31131C9.42552 9.82766 9.51821 9.75042 9.51821 9.65524V2.06903C9.51821 1.97385 9.42552 1.89661 9.31131 1.89661Z"
              fill="#35170C"/>
        <path d="M11.794 0.172363H10.1388C10.0246 0.172363 9.93188 0.249609 9.93188 0.344785V9.65514C9.93188 9.75031 10.0246 9.82756 10.1388 9.82756H11.794C11.9082 9.82756 12.0009 9.75031 12.0009 9.65514V0.344766C12.0009 0.24959 11.9082 0.172363 11.794 0.172363Z"
              fill="#35170C"/>
        <path d="M1.86304 7.06897H0.207883C0.0936719 7.06897 0.000976562 7.14622 0.000976562 7.24139V9.65518C0.000976562 9.75036 0.0936719 9.82761 0.207883 9.82761H1.86306C1.97727 9.82761 2.06997 9.75036 2.06997 9.65518V7.24139C2.06995 7.14622 1.97725 7.06897 1.86304 7.06897Z"
              fill="#35170C"/>
    </g>
    <defs>
        <clipPath id="clip0">
            <rect width="12" height="10" fill="white" transform="translate(0.000976562)"/>
        </clipPath>
    </defs>
</svg>
