<svg width="13" height="15" viewBox="0 0 13 15" fill="none" xmlns="http://www.w3.org/2000/svg">
    <g clip-path="url(#clip0)">
        <path d="M7.63628 2.09231C7.40784 1.96766 7.13624 1.96943 6.90944 2.09653C6.89474 2.10475 6.88121 2.11453 6.86884 2.12564L3.77904 4.86493C3.74404 4.88092 3.70601 4.88915 3.66728 4.88915H1.72524C1.32578 4.88915 1.00098 5.19867 1.00098 5.57886V8.42146C1.00098 8.80143 1.32578 9.11095 1.72524 9.11095H3.66751C3.70624 9.11095 3.74428 9.11917 3.77928 9.13517L6.86908 11.8745C6.88144 11.8856 6.89521 11.8953 6.90968 11.9036C7.02448 11.9678 7.15071 12 7.27694 12C7.40038 12 7.52381 11.9693 7.63651 11.9078C7.86471 11.7834 8.00098 11.5598 8.00098 11.3094V2.6907C8.00098 2.44028 7.86471 2.21674 7.63628 2.09231ZM7.53431 11.3094C7.53431 11.4376 7.44354 11.5009 7.40458 11.5223C7.36771 11.5423 7.27344 11.5805 7.16541 11.5305L4.07514 8.79076C4.06254 8.77943 4.04878 8.76965 4.03408 8.76165C3.92278 8.69921 3.79608 8.66655 3.66728 8.66655H1.72524C1.58314 8.66655 1.46764 8.55656 1.46764 8.42124V5.57886C1.46764 5.44354 1.58314 5.33355 1.72524 5.33355H3.66751C3.79608 5.33355 3.92301 5.30088 4.03431 5.23844C4.04901 5.23045 4.06278 5.22067 4.07538 5.20934L7.16564 2.46961C7.27414 2.41939 7.36818 2.45783 7.40481 2.47783C7.44354 2.49916 7.53431 2.56249 7.53431 2.6907V11.3094Z"
              fill="#35170C" stroke="#35170C" stroke-width="0.2"/>
        <path d="M9.08511 4.06756C8.97293 4.15765 8.97293 4.30326 9.08511 4.39334C10.8749 5.83054 10.8749 8.16951 9.08511 9.60672C8.97293 9.6968 8.97293 9.84241 9.08511 9.93249C9.14106 9.97742 9.21451 10 9.28796 10C9.36141 10 9.43486 9.97742 9.49081 9.93249C11.5044 8.31535 11.5044 5.68447 9.49081 4.06756C9.37891 3.97748 9.1973 3.97748 9.08511 4.06756Z"
              fill="#35170C" stroke="#35170C" stroke-width="0.2"/>
        <path d="M8.31054 5.06174C8.23964 4.97942 8.12505 4.97942 8.05415 5.06174C7.98325 5.14405 7.98325 5.2771 8.05415 5.35942C8.8333 6.26404 8.8333 7.73602 8.05415 8.64064C7.98325 8.72295 7.98325 8.856 8.05415 8.93832C8.08951 8.97937 8.13593 9 8.18235 9C8.22876 9 8.27518 8.97937 8.31054 8.93832C9.23112 7.86949 9.23112 6.13056 8.31054 5.06174Z"
              fill="#35170C" stroke="#35170C" stroke-width="0.2"/>
    </g>
    <defs>
        <clipPath id="clip0">
            <rect width="13" height="15" fill="white" transform="translate(0.000976562)"/>
        </clipPath>
    </defs>
</svg>
