<svg width="426" height="231" viewBox="0 0 426 231" fill="none" xmlns="http://www.w3.org/2000/svg">
    <path d="M353.559 219.94H66.6205C65.389 174.754 98.0236 77.0543 211.321 74.6118C301.836 74.6118 354.791 147.276 353.559 219.94Z"
          fill="black" fill-opacity="0.5"/>
    <path d="M11.2123 217.83C11.2123 220.179 10.8111 221.925 10.0087 223.067C9.20624 224.209 7.95199 224.78 6.24593 224.78C4.56155 224.78 3.31454 224.224 2.50488 223.111C1.69522 221.99 1.27593 220.32 1.24702 218.101V215.422C1.24702 213.102 1.64823 211.378 2.45066 210.25C3.25309 209.122 4.51095 208.558 6.22424 208.558C7.92308 208.558 9.17371 209.104 9.97614 210.196C10.7786 211.28 11.1906 212.957 11.2123 215.227V217.83ZM9.20624 215.086C9.20624 213.387 8.96768 212.151 8.49056 211.378C8.01344 210.597 7.258 210.207 6.22424 210.207C5.19771 210.207 4.4495 210.593 3.97961 211.367C3.50972 212.14 3.26755 213.33 3.25309 214.934V218.144C3.25309 219.85 3.49888 221.112 3.99045 221.929C4.48926 222.738 5.24109 223.143 6.24593 223.143C7.23631 223.143 7.97007 222.76 8.44719 221.994C8.93153 221.227 9.18455 220.02 9.20624 218.372V215.086Z"
          fill="white"/>
    <path d="M51.887 98.4825C51.887 99.2705 51.6774 99.9717 51.2581 100.586C50.846 101.201 50.2858 101.681 49.5773 102.028C50.4014 102.383 51.052 102.899 51.5292 103.579C52.0135 104.259 52.2557 105.028 52.2557 105.889C52.2557 107.255 51.793 108.343 50.8677 109.153C49.9496 109.962 48.7387 110.367 47.2351 110.367C45.717 110.367 44.4989 109.962 43.5808 109.153C42.6699 108.336 42.2145 107.248 42.2145 105.889C42.2145 105.036 42.4458 104.266 42.9085 103.579C43.3784 102.892 44.0254 102.372 44.8495 102.018C44.1483 101.671 43.5952 101.19 43.1904 100.575C42.7856 99.9608 42.5832 99.2632 42.5832 98.4825C42.5832 97.1523 43.0097 96.0969 43.8627 95.3162C44.7157 94.5354 45.8399 94.145 47.2351 94.145C48.6231 94.145 49.7436 94.5354 50.5966 95.3162C51.4569 96.0969 51.887 97.1523 51.887 98.4825ZM50.2496 105.845C50.2496 104.963 49.9677 104.244 49.4038 103.687C48.8472 103.131 48.117 102.852 47.2134 102.852C46.3098 102.852 45.5832 103.127 45.0338 103.677C44.4916 104.226 44.2206 104.949 44.2206 105.845C44.2206 106.742 44.4844 107.447 45.0121 107.96C45.5471 108.473 46.2881 108.73 47.2351 108.73C48.1749 108.73 48.9122 108.473 49.4472 107.96C49.9821 107.439 50.2496 106.734 50.2496 105.845ZM47.2351 95.7933C46.4471 95.7933 45.8073 96.0391 45.3158 96.5306C44.8314 97.015 44.5892 97.6765 44.5892 98.515C44.5892 99.3175 44.8278 99.9681 45.3049 100.467C45.7893 100.958 46.4327 101.204 47.2351 101.204C48.0375 101.204 48.6773 100.958 49.1544 100.467C49.6388 99.9681 49.8809 99.3175 49.8809 98.515C49.8809 97.7126 49.6315 97.0584 49.1327 96.5523C48.6339 96.0463 48.0014 95.7933 47.2351 95.7933ZM64.6825 103.416C64.6825 105.766 64.2813 107.512 63.4788 108.654C62.6764 109.796 61.4222 110.367 59.7161 110.367C58.0317 110.367 56.7847 109.81 55.975 108.697C55.1654 107.577 54.7461 105.907 54.7172 103.687V101.009C54.7172 98.6885 55.1184 96.9644 55.9208 95.8366C56.7233 94.7089 57.9811 94.145 59.6944 94.145C61.3932 94.145 62.6439 94.6908 63.4463 95.7824C64.2487 96.8668 64.6608 98.5439 64.6825 100.814V103.416ZM62.6764 100.673C62.6764 98.9741 62.4379 97.7379 61.9607 96.9644C61.4836 96.1836 60.7282 95.7933 59.6944 95.7933C58.6679 95.7933 57.9197 96.18 57.4498 96.9535C56.9799 97.7271 56.7377 98.9162 56.7233 100.521V103.731C56.7233 105.437 56.969 106.698 57.4606 107.515C57.9594 108.325 58.7113 108.73 59.7161 108.73C60.7065 108.73 61.4402 108.347 61.9174 107.58C62.4017 106.814 62.6547 105.607 62.6764 103.959V100.673Z"
          fill="white"/>
    <path d="M18.781 155.848H20.9714V157.485H18.781V161.15H16.764V157.485H9.57471V156.303L16.6448 145.362H18.781V155.848ZM11.8519 155.848H16.764V148.105L16.5255 148.539L11.8519 155.848ZM32.6825 154.416C32.6825 156.766 32.2813 158.512 31.4788 159.654C30.6764 160.796 29.4222 161.367 27.7161 161.367C26.0317 161.367 24.7847 160.81 23.975 159.697C23.1654 158.577 22.7461 156.907 22.7172 154.687V152.009C22.7172 149.689 23.1184 147.964 23.9208 146.837C24.7233 145.709 25.9811 145.145 27.6944 145.145C29.3932 145.145 30.6439 145.691 31.4463 146.782C32.2487 147.867 32.6608 149.544 32.6825 151.814V154.416ZM30.6764 151.673C30.6764 149.974 30.4379 148.738 29.9607 147.964C29.4836 147.184 28.7282 146.793 27.6944 146.793C26.6679 146.793 25.9197 147.18 25.4498 147.954C24.9799 148.727 24.7377 149.916 24.7233 151.521V154.731C24.7233 156.437 24.969 157.698 25.4606 158.515C25.9594 159.325 26.7113 159.73 27.7161 159.73C28.7065 159.73 29.4402 159.347 29.9174 158.58C30.4017 157.814 30.6547 156.607 30.6764 154.959V151.673Z"
          fill="white"/>
    <path d="M141.905 35.1502H139.888V21.78L135.843 23.2656V21.4439L141.591 19.286H141.905V35.1502ZM155.655 19.3511V21.0535H155.286C153.725 21.0824 152.481 21.5451 151.556 22.4415C150.631 23.3379 150.096 24.5994 149.951 26.2259C150.782 25.2717 151.917 24.7946 153.356 24.7946C154.729 24.7946 155.825 25.2789 156.641 26.2476C157.466 27.2163 157.878 28.4669 157.878 29.9995C157.878 31.6261 157.433 32.9273 156.544 33.9032C155.662 34.8791 154.476 35.3671 152.987 35.3671C151.476 35.3671 150.251 34.7888 149.311 33.6321C148.371 32.4682 147.902 30.9718 147.902 29.1429V28.373C147.902 25.4669 148.52 23.2475 149.756 21.715C150.999 20.1752 152.846 19.3872 155.297 19.3511H155.655ZM153.02 26.4645C152.333 26.4645 151.7 26.6705 151.122 27.0826C150.544 27.4946 150.143 28.0115 149.918 28.6332V29.3706C149.918 30.6718 150.211 31.72 150.797 32.5152C151.382 33.3104 152.112 33.708 152.987 33.708C153.891 33.708 154.599 33.3755 155.113 32.7104C155.633 32.0453 155.893 31.1742 155.893 30.0971C155.893 29.0127 155.629 28.138 155.102 27.4729C154.581 26.8006 153.887 26.4645 153.02 26.4645ZM170.153 28.4163C170.153 30.7658 169.751 32.5116 168.949 33.6538C168.147 34.796 166.892 35.3671 165.186 35.3671C163.502 35.3671 162.255 34.8105 161.445 33.6972C160.636 32.5767 160.216 30.9068 160.187 28.6874V26.0091C160.187 23.6885 160.589 21.9644 161.391 20.8366C162.193 19.7089 163.451 19.145 165.165 19.145C166.863 19.145 168.114 19.6908 168.916 20.7824C169.719 21.8668 170.131 23.5439 170.153 25.8139V28.4163ZM168.147 25.6729C168.147 23.9741 167.908 22.7379 167.431 21.9644C166.954 21.1836 166.198 20.7933 165.165 20.7933C164.138 20.7933 163.39 21.18 162.92 21.9535C162.45 22.7271 162.208 23.9162 162.193 25.5211V28.7308C162.193 30.4369 162.439 31.6983 162.931 32.5152C163.43 33.3249 164.181 33.7297 165.186 33.7297C166.177 33.7297 166.91 33.3466 167.388 32.5803C167.872 31.814 168.125 30.6068 168.147 28.9585V25.6729Z"
          fill="white"/>
    <path d="M352.229 101.28H353.736C354.683 101.266 355.428 101.016 355.97 100.532C356.512 100.048 356.783 99.3934 356.783 98.5692C356.783 96.7186 355.862 95.7933 354.018 95.7933C353.151 95.7933 352.457 96.0427 351.936 96.5415C351.423 97.0331 351.166 97.6873 351.166 98.5042H349.16C349.16 97.2535 349.616 96.2162 350.527 95.3921C351.445 94.5607 352.609 94.145 354.018 94.145C355.507 94.145 356.675 94.539 357.521 95.327C358.367 96.115 358.789 97.2102 358.789 98.6126C358.789 99.2994 358.565 99.9645 358.117 100.608C357.676 101.251 357.073 101.732 356.306 102.05C357.174 102.325 357.842 102.78 358.312 103.416C358.789 104.053 359.028 104.83 359.028 105.748C359.028 107.165 358.565 108.289 357.64 109.12C356.715 109.951 355.511 110.367 354.029 110.367C352.547 110.367 351.34 109.966 350.407 109.163C349.482 108.361 349.019 107.302 349.019 105.986H351.036C351.036 106.818 351.307 107.483 351.849 107.982C352.392 108.48 353.118 108.73 354.029 108.73C354.998 108.73 355.739 108.477 356.252 107.971C356.765 107.465 357.022 106.738 357.022 105.791C357.022 104.873 356.74 104.168 356.176 103.677C355.612 103.185 354.799 102.932 353.736 102.918H352.229V101.28ZM372.127 110.15H361.782V108.708L367.247 102.636C368.057 101.718 368.614 100.973 368.917 100.402C369.228 99.8235 369.384 99.2271 369.384 98.6126C369.384 97.7885 369.134 97.1126 368.635 96.5849C368.137 96.0571 367.472 95.7933 366.64 95.7933C365.643 95.7933 364.865 96.0788 364.309 96.6499C363.759 97.2138 363.485 98.0018 363.485 99.0138H361.479C361.479 97.5608 361.945 96.3861 362.877 95.4897C363.817 94.5932 365.071 94.145 366.64 94.145C368.108 94.145 369.268 94.5318 370.121 95.3053C370.974 96.0716 371.401 97.0945 371.401 98.3741C371.401 99.9283 370.41 101.779 368.429 103.926L364.2 108.513H372.127V110.15ZM384.153 103.416C384.153 105.766 383.751 107.512 382.949 108.654C382.147 109.796 380.892 110.367 379.186 110.367C377.502 110.367 376.255 109.81 375.445 108.697C374.636 107.577 374.216 105.907 374.187 103.687V101.009C374.187 98.6885 374.589 96.9644 375.391 95.8366C376.193 94.7089 377.451 94.145 379.165 94.145C380.863 94.145 382.114 94.6908 382.916 95.7824C383.719 96.8668 384.131 98.5439 384.153 100.814V103.416ZM382.147 100.673C382.147 98.9741 381.908 97.7379 381.431 96.9644C380.954 96.1836 380.198 95.7933 379.165 95.7933C378.138 95.7933 377.39 96.18 376.92 96.9535C376.45 97.7271 376.208 98.9162 376.193 100.521V103.731C376.193 105.437 376.439 106.698 376.931 107.515C377.43 108.325 378.181 108.73 379.186 108.73C380.177 108.73 380.91 108.347 381.388 107.58C381.872 106.814 382.125 105.607 382.147 103.959V100.673Z"
          fill="white"/>
    <path d="M381.229 152.28H382.736C383.683 152.266 384.428 152.016 384.97 151.532C385.512 151.048 385.783 150.393 385.783 149.569C385.783 147.719 384.862 146.793 383.018 146.793C382.151 146.793 381.457 147.043 380.936 147.541C380.423 148.033 380.166 148.687 380.166 149.504H378.16C378.16 148.254 378.616 147.216 379.527 146.392C380.445 145.561 381.609 145.145 383.018 145.145C384.507 145.145 385.675 145.539 386.521 146.327C387.367 147.115 387.789 148.21 387.789 149.613C387.789 150.299 387.565 150.964 387.117 151.608C386.676 152.251 386.073 152.732 385.306 153.05C386.174 153.325 386.842 153.78 387.312 154.416C387.789 155.053 388.028 155.83 388.028 156.748C388.028 158.165 387.565 159.289 386.64 160.12C385.715 160.951 384.511 161.367 383.029 161.367C381.547 161.367 380.34 160.966 379.407 160.163C378.482 159.361 378.019 158.302 378.019 156.986H380.036C380.036 157.818 380.307 158.483 380.849 158.982C381.392 159.48 382.118 159.73 383.029 159.73C383.998 159.73 384.739 159.477 385.252 158.971C385.765 158.465 386.022 157.738 386.022 156.791C386.022 155.873 385.74 155.168 385.176 154.677C384.612 154.185 383.799 153.932 382.736 153.918H381.229V152.28ZM398.655 145.351V147.054H398.286C396.725 147.082 395.481 147.545 394.556 148.442C393.631 149.338 393.096 150.599 392.951 152.226C393.782 151.272 394.917 150.795 396.356 150.795C397.729 150.795 398.825 151.279 399.641 152.248C400.466 153.216 400.878 154.467 400.878 156C400.878 157.626 400.433 158.927 399.544 159.903C398.662 160.879 397.476 161.367 395.987 161.367C394.476 161.367 393.251 160.789 392.311 159.632C391.371 158.468 390.902 156.972 390.902 155.143V154.373C390.902 151.467 391.52 149.248 392.756 147.715C393.999 146.175 395.846 145.387 398.297 145.351H398.655ZM396.02 152.464C395.333 152.464 394.7 152.671 394.122 153.083C393.544 153.495 393.143 154.012 392.918 154.633V155.371C392.918 156.672 393.211 157.72 393.797 158.515C394.382 159.31 395.112 159.708 395.987 159.708C396.891 159.708 397.599 159.375 398.113 158.71C398.633 158.045 398.893 157.174 398.893 156.097C398.893 155.013 398.629 154.138 398.102 153.473C397.581 152.801 396.887 152.464 396.02 152.464ZM413.153 154.416C413.153 156.766 412.751 158.512 411.949 159.654C411.147 160.796 409.892 161.367 408.186 161.367C406.502 161.367 405.255 160.81 404.445 159.697C403.636 158.577 403.216 156.907 403.187 154.687V152.009C403.187 149.689 403.589 147.964 404.391 146.837C405.193 145.709 406.451 145.145 408.165 145.145C409.863 145.145 411.114 145.691 411.916 146.782C412.719 147.867 413.131 149.544 413.153 151.814V154.416ZM411.147 151.673C411.147 149.974 410.908 148.738 410.431 147.964C409.954 147.184 409.198 146.793 408.165 146.793C407.138 146.793 406.39 147.18 405.92 147.954C405.45 148.727 405.208 149.916 405.193 151.521V154.731C405.193 156.437 405.439 157.698 405.931 158.515C406.43 159.325 407.181 159.73 408.186 159.73C409.177 159.73 409.91 159.347 410.388 158.58C410.872 157.814 411.125 156.607 411.147 154.959V151.673Z"
          fill="white"/>
    <path d="M396.536 219.261H398.727V220.898H396.536V224.564H394.519V220.898H387.33V219.716L394.4 208.775H396.536V219.261ZM389.607 219.261H394.519V211.519L394.281 211.952L389.607 219.261ZM410.438 217.83C410.438 220.179 410.037 221.925 409.234 223.067C408.432 224.209 407.178 224.78 405.471 224.78C403.787 224.78 402.54 224.224 401.73 223.111C400.921 221.99 400.501 220.32 400.473 218.101V215.422C400.473 213.102 400.874 211.378 401.676 210.25C402.479 209.122 403.736 208.558 405.45 208.558C407.149 208.558 408.399 209.104 409.202 210.196C410.004 211.28 410.416 212.957 410.438 215.227V217.83ZM408.432 215.086C408.432 213.387 408.193 212.151 407.716 211.378C407.239 210.597 406.484 210.207 405.45 210.207C404.423 210.207 403.675 210.593 403.205 211.367C402.735 212.14 402.493 213.33 402.479 214.934V218.144C402.479 219.85 402.724 221.112 403.216 221.929C403.715 222.738 404.467 223.143 405.471 223.143C406.462 223.143 407.196 222.76 407.673 221.994C408.157 221.227 408.41 220.02 408.432 218.372V215.086ZM422.908 217.83C422.908 220.179 422.507 221.925 421.704 223.067C420.902 224.209 419.648 224.78 417.942 224.78C416.257 224.78 415.01 224.224 414.201 223.111C413.391 221.99 412.972 220.32 412.943 218.101V215.422C412.943 213.102 413.344 211.378 414.146 210.25C414.949 209.122 416.207 208.558 417.92 208.558C419.619 208.558 420.869 209.104 421.672 210.196C422.474 211.28 422.886 212.957 422.908 215.227V217.83ZM420.902 215.086C420.902 213.387 420.663 212.151 420.186 211.378C419.709 210.597 418.954 210.207 417.92 210.207C416.893 210.207 416.145 210.593 415.675 211.367C415.205 212.14 414.963 213.33 414.949 214.934V218.144C414.949 219.85 415.195 221.112 415.686 221.929C416.185 222.738 416.937 223.143 417.942 223.143C418.932 223.143 419.666 222.76 420.143 221.994C420.627 221.227 420.88 220.02 420.902 218.372V215.086Z"
          fill="white"/>
    <path d="M201.657 21.1502H191.312V19.708L196.777 13.6356C197.587 12.7175 198.144 11.9729 198.447 11.4018C198.758 10.8235 198.913 10.2271 198.913 9.61262C198.913 8.7885 198.664 8.11258 198.165 7.58486C197.666 7.05714 197.001 6.79327 196.17 6.79327C195.172 6.79327 194.395 7.07882 193.839 7.64992C193.289 8.21379 193.015 9.00176 193.015 10.0138H191.008C191.008 8.56079 191.475 7.38606 192.407 6.48965C193.347 5.59325 194.601 5.14504 196.17 5.14504C197.638 5.14504 198.798 5.5318 199.651 6.30531C200.504 7.07159 200.93 8.09451 200.93 9.37406C200.93 10.9283 199.94 12.779 197.959 14.926L193.73 19.5128H201.657V21.1502ZM213.682 14.4163C213.682 16.7658 213.281 18.5116 212.479 19.6538C211.676 20.796 210.422 21.3671 208.716 21.3671C207.032 21.3671 205.785 20.8105 204.975 19.6972C204.165 18.5767 203.746 16.9068 203.717 14.6874V12.0091C203.717 9.68852 204.118 7.96439 204.921 6.83665C205.723 5.70891 206.981 5.14504 208.694 5.14504C210.393 5.14504 211.644 5.69084 212.446 6.78243C213.249 7.86679 213.661 9.54394 213.682 11.8139V14.4163ZM211.676 11.6729C211.676 9.97407 211.438 8.7379 210.961 7.96439C210.484 7.18364 209.728 6.79327 208.694 6.79327C207.668 6.79327 206.92 7.18003 206.45 7.95354C205.98 8.72705 205.738 9.91624 205.723 11.5211V14.7308C205.723 16.4369 205.969 17.6983 206.461 18.5152C206.959 19.3249 207.711 19.7297 208.716 19.7297C209.706 19.7297 210.44 19.3466 210.917 18.5803C211.402 17.814 211.655 16.6068 211.676 14.9585V11.6729ZM226.153 14.4163C226.153 16.7658 225.751 18.5116 224.949 19.6538C224.147 20.796 222.892 21.3671 221.186 21.3671C219.502 21.3671 218.255 20.8105 217.445 19.6972C216.636 18.5767 216.216 16.9068 216.187 14.6874V12.0091C216.187 9.68852 216.589 7.96439 217.391 6.83665C218.193 5.70891 219.451 5.14504 221.165 5.14504C222.863 5.14504 224.114 5.69084 224.916 6.78243C225.719 7.86679 226.131 9.54394 226.153 11.8139V14.4163ZM224.147 11.6729C224.147 9.97407 223.908 8.7379 223.431 7.96439C222.954 7.18364 222.198 6.79327 221.165 6.79327C220.138 6.79327 219.39 7.18003 218.92 7.95354C218.45 8.72705 218.208 9.91624 218.193 11.5211V14.7308C218.193 16.4369 218.439 17.6983 218.931 18.5152C219.43 19.3249 220.181 19.7297 221.186 19.7297C222.177 19.7297 222.91 19.3466 223.388 18.5803C223.872 17.814 224.125 16.6068 224.147 14.9585V11.6729Z"
          fill="white"/>
    <path d="M93.905 63.1502H91.8881V49.78L87.8434 51.2656V49.4439L93.5905 47.286H93.905V63.1502ZM110.127 63.1502H99.7822V61.708L105.247 55.6356C106.057 54.7175 106.614 53.9729 106.917 53.4018C107.228 52.8235 107.384 52.2271 107.384 51.6126C107.384 50.7885 107.134 50.1126 106.635 49.5849C106.137 49.0571 105.472 48.7933 104.64 48.7933C103.643 48.7933 102.865 49.0788 102.309 49.6499C101.759 50.2138 101.485 51.0018 101.485 52.0138H99.4786C99.4786 50.5608 99.9449 49.3861 100.877 48.4897C101.817 47.5932 103.071 47.145 104.64 47.145C106.108 47.145 107.268 47.5318 108.121 48.3053C108.974 49.0716 109.401 50.0945 109.401 51.3741C109.401 52.9283 108.41 54.779 106.429 56.926L102.2 61.5128H110.127V63.1502ZM122.153 56.4163C122.153 58.7658 121.751 60.5116 120.949 61.6538C120.147 62.796 118.892 63.3671 117.186 63.3671C115.502 63.3671 114.255 62.8105 113.445 61.6972C112.636 60.5767 112.216 58.9068 112.187 56.6874V54.0091C112.187 51.6885 112.589 49.9644 113.391 48.8366C114.193 47.7089 115.451 47.145 117.165 47.145C118.863 47.145 120.114 47.6908 120.916 48.7824C121.719 49.8668 122.131 51.5439 122.153 53.8139V56.4163ZM120.147 53.6729C120.147 51.9741 119.908 50.7379 119.431 49.9644C118.954 49.1836 118.198 48.7933 117.165 48.7933C116.138 48.7933 115.39 49.18 114.92 49.9535C114.45 50.7271 114.208 51.9162 114.193 53.5211V56.7308C114.193 58.4369 114.439 59.6983 114.931 60.5152C115.43 61.3249 116.181 61.7297 117.186 61.7297C118.177 61.7297 118.91 61.3466 119.388 60.5803C119.872 59.814 120.125 58.6068 120.147 56.9585V53.6729Z"
          fill="white"/>
    <path d="M264.657 35.1502H254.312V33.708L259.777 27.6356C260.587 26.7175 261.144 25.9729 261.447 25.4018C261.758 24.8235 261.913 24.2271 261.913 23.6126C261.913 22.7885 261.664 22.1126 261.165 21.5849C260.666 21.0571 260.001 20.7933 259.17 20.7933C258.172 20.7933 257.395 21.0788 256.839 21.6499C256.289 22.2138 256.015 23.0018 256.015 24.0138H254.008C254.008 22.5608 254.475 21.3861 255.407 20.4897C256.347 19.5932 257.601 19.145 259.17 19.145C260.638 19.145 261.798 19.5318 262.651 20.3053C263.504 21.0716 263.93 22.0945 263.93 23.3741C263.93 24.9283 262.94 26.779 260.959 28.926L256.73 33.5128H264.657V35.1502ZM275.251 29.8477H277.442V31.4851H275.251V35.1502H273.234V31.4851H266.045V30.3031L273.115 19.3619H275.251V29.8477ZM268.322 29.8477H273.234V22.1054L272.996 22.5391L268.322 29.8477ZM289.153 28.4163C289.153 30.7658 288.751 32.5116 287.949 33.6538C287.147 34.796 285.892 35.3671 284.186 35.3671C282.502 35.3671 281.255 34.8105 280.445 33.6972C279.636 32.5767 279.216 30.9068 279.187 28.6874V26.0091C279.187 23.6885 279.589 21.9644 280.391 20.8366C281.193 19.7089 282.451 19.145 284.165 19.145C285.863 19.145 287.114 19.6908 287.916 20.7824C288.719 21.8668 289.131 23.5439 289.153 25.8139V28.4163ZM287.147 25.6729C287.147 23.9741 286.908 22.7379 286.431 21.9644C285.954 21.1836 285.198 20.7933 284.165 20.7933C283.138 20.7933 282.39 21.18 281.92 21.9535C281.45 22.7271 281.208 23.9162 281.193 25.5211V28.7308C281.193 30.4369 281.439 31.6983 281.931 32.5152C282.43 33.3249 283.181 33.7297 284.186 33.7297C285.177 33.7297 285.91 33.3466 286.388 32.5803C286.872 31.814 287.125 30.6068 287.147 28.9585V25.6729Z"
          fill="white"/>
    <path d="M309.657 63.1502H299.312V61.708L304.777 55.6356C305.587 54.7175 306.144 53.9729 306.447 53.4018C306.758 52.8235 306.913 52.2271 306.913 51.6126C306.913 50.7885 306.664 50.1126 306.165 49.5849C305.666 49.0571 305.001 48.7933 304.17 48.7933C303.172 48.7933 302.395 49.0788 301.839 49.6499C301.289 50.2138 301.015 51.0018 301.015 52.0138H299.008C299.008 50.5608 299.475 49.3861 300.407 48.4897C301.347 47.5932 302.601 47.145 304.17 47.145C305.638 47.145 306.798 47.5318 307.651 48.3053C308.504 49.0716 308.93 50.0945 308.93 51.3741C308.93 52.9283 307.94 54.779 305.959 56.926L301.73 61.5128H309.657V63.1502ZM321.357 51.4825C321.357 52.2705 321.148 52.9717 320.728 53.5862C320.316 54.2006 319.756 54.6814 319.047 55.0284C319.872 55.3826 320.522 55.8995 320.999 56.579C321.484 57.2585 321.726 58.0284 321.726 58.8887C321.726 60.255 321.263 61.343 320.338 62.1526C319.42 62.9623 318.209 63.3671 316.705 63.3671C315.187 63.3671 313.969 62.9623 313.051 62.1526C312.14 61.3357 311.685 60.2478 311.685 58.8887C311.685 58.0357 311.916 57.2658 312.379 56.579C312.849 55.8922 313.496 55.3717 314.32 55.0175C313.618 54.6705 313.065 54.1898 312.661 53.5753C312.256 52.9608 312.053 52.2632 312.053 51.4825C312.053 50.1523 312.48 49.0969 313.333 48.3162C314.186 47.5354 315.31 47.145 316.705 47.145C318.093 47.145 319.214 47.5354 320.067 48.3162C320.927 49.0969 321.357 50.1523 321.357 51.4825ZM319.72 58.8453C319.72 57.9634 319.438 57.2441 318.874 56.6874C318.317 56.1308 317.587 55.8525 316.684 55.8525C315.78 55.8525 315.053 56.1272 314.504 56.6766C313.962 57.226 313.691 57.9489 313.691 58.8453C313.691 59.7417 313.955 60.4466 314.482 60.9598C315.017 61.4731 315.758 61.7297 316.705 61.7297C317.645 61.7297 318.382 61.4731 318.917 60.9598C319.452 60.4393 319.72 59.7345 319.72 58.8453ZM316.705 48.7933C315.917 48.7933 315.278 49.0391 314.786 49.5306C314.302 50.015 314.059 50.6765 314.059 51.515C314.059 52.3175 314.298 52.9681 314.775 53.4669C315.259 53.9585 315.903 54.2042 316.705 54.2042C317.508 54.2042 318.147 53.9585 318.625 53.4669C319.109 52.9681 319.351 52.3175 319.351 51.515C319.351 50.7126 319.102 50.0584 318.603 49.5523C318.104 49.0463 317.472 48.7933 316.705 48.7933ZM334.153 56.4163C334.153 58.7658 333.751 60.5116 332.949 61.6538C332.147 62.796 330.892 63.3671 329.186 63.3671C327.502 63.3671 326.255 62.8105 325.445 61.6972C324.636 60.5767 324.216 58.9068 324.187 56.6874V54.0091C324.187 51.6885 324.589 49.9644 325.391 48.8366C326.193 47.7089 327.451 47.145 329.165 47.145C330.863 47.145 332.114 47.6908 332.916 48.7824C333.719 49.8668 334.131 51.5439 334.153 53.8139V56.4163ZM332.147 53.6729C332.147 51.9741 331.908 50.7379 331.431 49.9644C330.954 49.1836 330.198 48.7933 329.165 48.7933C328.138 48.7933 327.39 49.18 326.92 49.9535C326.45 50.7271 326.208 51.9162 326.193 53.5211V56.7308C326.193 58.4369 326.439 59.6983 326.931 60.5152C327.43 61.3249 328.181 61.7297 329.186 61.7297C330.177 61.7297 330.91 61.3466 331.388 60.5803C331.872 59.814 332.125 58.6068 332.147 56.9585V53.6729Z"
          fill="white"/>
</svg>
