<svg id="Capa_1" enable-background="new 0 0 511 511" height="512" viewBox="0 0 511 511" width="512" xmlns="http://www.w3.org/2000/svg"><g><path d="m255.5 59c-91.533 0-166 74.468-166 166s74.467 166 166 166 166-74.468 166-166-74.467-166-166-166zm0 302c-74.991 0-136-61.01-136-136s61.009-136 136-136 136 61.01 136 136-61.009 136-136 136z"/><path d="m415.306 66.193c-42.685-42.685-99.439-66.193-159.806-66.193s-117.121 23.508-159.806 66.193c-42.686 42.687-66.194 99.44-66.194 159.807 0 106.499 74.454 198.443 177.887 220.849l48.113 64.151 48.114-64.152c103.432-22.406 177.886-114.349 177.886-220.848 0-60.367-23.508-117.12-66.194-159.807zm-123.064 352.355-5.716 1.083-31.026 41.369-31.026-41.368-5.716-1.083c-92.28-17.495-159.258-98.474-159.258-192.549 0-108.075 87.925-196 196-196s196 87.925 196 196c0 94.074-66.978 175.053-159.258 192.548z"/></g></svg>