<svg id="Layer_1" enable-background="new 0 0 512 512" height="512" viewBox="0 0 512 512" width="512" xmlns="http://www.w3.org/2000/svg"><g><path d="m256 144c-48.523 0-88-39.477-88-88v-40c0-5.143 2.472-9.973 6.645-12.98 4.172-3.007 9.538-3.826 14.415-2.199l29.309 9.77c24.267 8.089 50.995 8.089 75.263 0l29.309-9.77c4.88-1.626 10.243-.808 14.415 2.199s6.644 7.837 6.644 12.98v40c0 48.524-39.477 88-88 88z"/><path d="m350.672 135.862c-2.028-1.094-4.536-.701-6.09 1-21.959 24.035-53.538 39.138-88.582 39.138s-66.623-15.103-88.582-39.138c-1.554-1.701-4.062-2.094-6.09-1-62.657 33.812-105.328 100.085-105.328 176.138v134c0 36.451 29.549 66 66 66h268c36.451 0 66-29.549 66-66v-134c0-76.053-42.671-142.326-105.328-176.138zm-94.315 192.139c35.126.193 63.643 28.828 63.643 63.999 0 28.489-18.711 52.69-44.49 60.959-2.082.668-3.51 2.579-3.51 4.765v5.823c0 8.615-6.621 16.028-15.226 16.434-9.188.434-16.774-6.888-16.774-15.981v-6.271c0-2.195-1.44-4.105-3.53-4.776-25.556-8.207-44.161-32.074-44.466-60.25-.096-8.839 6.732-16.467 15.569-16.697 9.031-.236 16.427 7.016 16.427 15.994 0 18.401 15.612 33.225 34.286 31.92 15.763-1.101 28.533-13.87 29.634-29.634 1.305-18.674-13.519-34.286-31.92-34.286-35.29 0-64-28.71-64-64 0-28.489 18.711-52.69 44.49-60.959 2.082-.668 3.51-2.579 3.51-4.765v-5.823c0-8.615 6.621-16.028 15.226-16.434 9.188-.433 16.774 6.888 16.774 15.981v6.271c0 2.195 1.44 4.105 3.53 4.776 25.556 8.207 44.161 32.074 44.466 60.25.096 8.839-6.732 16.467-15.569 16.697-9.031.236-16.427-7.015-16.427-15.994 0-17.645-14.355-32-32-32-17.754 0-32.178 14.533-31.998 32.328.177 17.545 14.809 31.577 32.355 31.673z"/></g></svg>