<?xml version="1.0" encoding="iso-8859-1"?>
<!-- Generator: Adobe Illustrator 19.0.0, SVG Export Plug-In . SVG Version: 6.00 Build 0)  -->
<svg version="1.1" id="Capa_1" xmlns="http://www.w3.org/2000/svg" xmlns:xlink="http://www.w3.org/1999/xlink" x="0px" y="0px"
	 viewBox="0 0 512 512" style="enable-background:new 0 0 512 512;" xml:space="preserve">
<g>
	<g>
		<path d="M509.989,463.655L474.84,361.362c16.906-34.173,25.847-72.265,25.907-110.592c0.102-66.002-25.435-128.41-71.909-175.727
			C382.356,27.718,320.417,1.08,254.432,0.033c-34.571-0.555-68.117,5.815-99.757,18.912c-30.517,12.632-57.884,30.931-81.34,54.388
			c-23.457,23.456-41.756,50.823-54.388,81.34C5.848,186.313-0.515,219.876,0.033,254.43
			c1.045,65.985,27.684,127.924,75.008,174.406c47.224,46.383,109.472,71.912,175.332,71.911c0.128,0,0.265,0,0.394,0
			c38.328-0.059,76.419-9,110.594-25.907l102.293,35.149c3.934,1.352,7.966,2.011,11.954,2.011c9.475,0,18.69-3.723,25.679-10.712
			C511.219,491.358,514.553,476.938,509.989,463.655z M247.909,393.103c-8.509,0-14.81-6.955-15.178-15.178
			c-0.367-8.197,7.239-15.178,15.178-15.178c8.509,0,14.81,6.955,15.178,15.178C263.455,386.121,255.848,393.103,247.909,393.103z
			 M263.087,277.171v48.259c0,8.382-6.796,15.178-15.178,15.178c-8.382,0-15.178-6.796-15.178-15.178v-61.905
			c0-8.382,6.796-15.178,15.178-15.178c24.9,0,45.159-20.259,45.159-45.159s-20.259-45.159-45.159-45.159
			s-45.159,20.259-45.159,45.159c0,8.382-6.796,15.178-15.178,15.178s-15.178-6.796-15.178-15.178
			c0-41.638,33.876-75.515,75.515-75.515c41.638,0,75.515,33.876,75.515,75.515C323.424,239.63,297.477,270.126,263.087,277.171z"/>
	</g>
</g>
<g>
</g>
<g>
</g>
<g>
</g>
<g>
</g>
<g>
</g>
<g>
</g>
<g>
</g>
<g>
</g>
<g>
</g>
<g>
</g>
<g>
</g>
<g>
</g>
<g>
</g>
<g>
</g>
<g>
</g>
</svg>
