<svg id="Слой_2" data-name="Слой 2" xmlns="http://www.w3.org/2000/svg" viewBox="0 0 2500 2500"><title>!icon</title><path d="M2174.33,2039.92,2044,1660.08a907.67,907.67,0,0,0,97-409.58c0-503.41-408.09-911.5-911.5-911.5S318,747.09,318,1250.5,726.09,2162,1229.5,2162a907.72,907.72,0,0,0,406.4-95.4l382.71,129.65C2115.29,2229,2207.46,2136.47,2174.33,2039.92ZM1225.5,1869.67a105.5,105.5,0,1,1,105.5-105.5A105.5,105.5,0,0,1,1225.5,1869.67ZM1331,1458.26a60.18,60.18,0,0,1-60,60h-91a60.18,60.18,0,0,1-60-60V656.68a60.18,60.18,0,0,1,60-60h91a60.18,60.18,0,0,1,60,60Z"/></svg>