<svg width="512" height="512" viewBox="0 0 512 512" fill="none" xmlns="http://www.w3.org/2000/svg">
<path d="M284.286 256.002L506.143 34.144C513.954 26.333 513.954 13.669 506.143 5.85898C498.332 -1.95102 485.668 -1.95202 477.858 5.85898L256 227.717L34.1433 5.85898C26.3323 -1.95202 13.6682 -1.95202 5.85825 5.85898C-1.95175 13.67 -1.95275 26.334 5.85825 34.144L227.715 256.001L5.85825 477.859C-1.95275 485.67 -1.95275 498.334 5.85825 506.144C9.76325 510.049 14.8822 512.001 20.0012 512.001C25.1202 512.001 30.2383 510.049 34.1443 506.144L256 284.287L477.857 506.144C481.762 510.049 486.881 512.001 492 512.001C497.119 512.001 502.237 510.049 506.143 506.144C513.954 498.333 513.954 485.669 506.143 477.859L284.286 256.002Z" fill="white"/>
</svg>
