<svg width="19" height="20" viewBox="0 0 19 20" fill="none" xmlns="http://www.w3.org/2000/svg">
    <path opacity="0.54" fill-rule="evenodd" clip-rule="evenodd"
          d="M12.3668 11.5876H11.7564L11.5442 11.3769C12.2937 10.5029 12.7496 9.36972 12.7496 8.12818C12.7496 5.36837 10.5125 3.13131 7.75273 3.13131C4.99292 3.13131 2.75586 5.36837 2.75586 8.12818C2.75586 10.888 4.99292 13.1251 7.75273 13.1251C8.99427 13.1251 10.1266 12.67 11.0007 11.9212L11.2129 12.1318V12.7407L15.0551 16.5775L16.2013 15.4313L12.3668 11.5876V11.5876ZM7.75273 11.5876C5.84162 11.5876 4.29336 10.0393 4.29336 8.12818C4.29336 6.21784 5.84162 4.66881 7.75273 4.66881C9.66308 4.66881 11.2121 6.21784 11.2121 8.12818C11.2121 10.0393 9.66308 11.5876 7.75273 11.5876V11.5876Z"
          fill="black"/>
</svg>
