<svg width="14" height="15" viewBox="0 0 14 15" fill="none" xmlns="http://www.w3.org/2000/svg">
    <defs>
      //начало описания фильтра
    <filter id="myfilter" x="0" y="0" width="200%" height="200%">
      // Взять прозрачность объекта и сместить на 2px вниз и вправо
      <feOffset result="offOut" in="SourceAlpha" dx="2" dy="2" />
      // Затем размыть силой 2
      <feGaussianBlur result="blurOut" in="offOut" stdDeviation="2" />
      //  и совместить с исходным изображением:
      <feBlend in="SourceGraphic" in2="blurOut" mode="normal" />
    </filter>
  </defs>
    <path filter="url(#myfilter)" fill-rule="evenodd" clip-rule="evenodd"
          d="M11.6778 2.38013V12.8768L2.82688 7.62847L11.6778 2.38013ZM12.043 0.5625C11.838 0.5625 11.6333 0.616458 11.4506 0.725146L1.52048 6.61329C1.16347 6.82526 0.944458 7.21119 0.944458 7.62847C0.944458 8.04601 1.16347 8.43168 1.52048 8.64366L11.4506 14.5318C11.6333 14.6402 11.838 14.6944 12.043 14.6944C12.2431 14.6944 12.4432 14.6425 12.6231 14.539C12.9867 14.3293 13.2111 13.939 13.2111 13.5166V1.74033C13.2111 1.31766 12.9867 0.927618 12.6231 0.717951C12.4432 0.614146 12.2431 0.5625 12.043 0.5625Z"
          fill="white"/>
</svg>
